<svg height="256" viewBox="0 0 256 256" width="256" xmlns="http://www.w3.org/2000/svg"><g fill="none" fill-rule="evenodd" transform="translate(8 8)"><circle cx="120" cy="120" fill="#623295" r="120"/><path d="m131.233126 158.466253 19.083592 38.167184c2.963871 5.927742.561179 13.135818-5.366563 16.099689-1.666265.833133-3.503622 1.266874-5.366563 1.266874h-38.167184c-6.6274171 0-12.0000001-5.372583-12.0000001-12 0-1.862941.4337411-3.700298 1.2668737-5.366563l19.0835924-38.167184c2.963871-5.927742 10.171947-8.330435 16.099689-5.366564 2.322329 1.161165 4.205399 3.044235 5.366563 5.366564z" fill="#ff70c4"/><path d="m130.233126 47.4662526 19.083592 38.1671843c2.963871 5.9277419.561179 13.1358184-5.366563 16.0996891-1.666265.833133-3.503622 1.266874-5.366563 1.266874h-38.167184c-6.6274171 0-12.0000001-5.372583-12.0000001-12 0-1.8629411.4337411-3.7002979 1.2668737-5.3665631l19.0835924-38.1671843c2.963871-5.927742 10.171947-8.3304341 16.099689-5.3665632 2.322329 1.1611645 4.205399 3.0442344 5.366563 5.3665632z" fill="#ffec70" transform="matrix(-1 0 0 -1 239 129)"/><path d="m178.628096 130.509731 19.192288 38.384575c2.963871 5.927742.561179 13.135819-5.366563 16.09969-1.666265.833132-3.503622 1.266874-5.366563 1.266874h-38.384576c-6.627417 0-12-5.372583-12-12 0-1.862942.433741-3.700298 1.266874-5.366564l19.192288-38.384575c2.963871-5.927742 10.171947-8.330434 16.099689-5.366563 2.322329 1.161164 4.205399 3.044234 5.366563 5.366563z" fill="#ff7070" transform="matrix(.5 -.8660254 .8660254 .5 -43.923049 219.227396)"/><path d="m82.8381561 75.205383 19.1922879 38.384576c2.963871 5.927742.561179 13.135818-5.3665632 16.099689-1.6662652.833133-3.503622 1.266874-5.3665632 1.266874h-38.3845755c-6.627417 0-12-5.372583-12-12 0-1.862941.4337411-3.700298 1.2668737-5.366563l19.1922878-38.384576c2.9638709-5.927742 10.1719474-8.3304341 16.0996894-5.3665631 2.3223288 1.1611644 4.2053987 3.0442343 5.3665631 5.3665631z" fill="#70beff" transform="matrix(-.5 .8660254 -.8660254 -.5 188.133108 76.076951)"/><path d="m178.628096 75.205383 19.192288 38.384576c2.963871 5.927742.561179 13.135818-5.366563 16.099689-1.666265.833133-3.503622 1.266874-5.366563 1.266874h-38.384576c-6.627417 0-12-5.372583-12-12 0-1.862941.433741-3.700298 1.266874-5.366563l19.192288-38.384576c2.963871-5.927742 10.171947-8.3304341 16.099689-5.3665631 2.322329 1.1611644 4.205399 3.0442343 5.366563 5.3665631z" fill="#ffa570" transform="matrix(-.5 -.8660254 .8660254 -.5 171.866892 283.923048)"/><path d="m82.8381561 130.509731 19.1922879 38.384575c2.963871 5.927742.561179 13.135819-5.3665632 16.09969-1.6662652.833132-3.503622 1.266874-5.3665632 1.266874h-38.3845755c-6.627417 0-12-5.372583-12-12 0-1.862942.4337411-3.700298 1.2668737-5.366564l19.1922878-38.384575c2.9638709-5.927742 10.1719474-8.330434 16.0996894-5.366563 2.3223288 1.161164 4.2053987 3.044234 5.3665631 5.366563z" fill="#ba70ff" transform="matrix(.5 .8660254 -.8660254 .5 163.923049 11.381299)"/></g></svg>